# xmcd CD database file
#
# Track frame offsets:
#	150
#	35021
#	67652
#	99858
#	131252
#	144054
#	179611
#	196594
#	222293
#	258863
#
# Disc length: 3875 seconds
#
# Revision: 0
# Processed by: cddbd v1.5.2PL0 Copyright (c) Steve Scherf et al.
# Submitted via: CDex 1.51
#
DISCID=7c0f210a
DTITLE=Alexandra Lehmler Quintett  ALQ -  Sundance
DYEAR=2006
DGENRE=Jazz
TTITLE0=Sunddance
TTITLE1=Baggerseensucht
TTITLE2=Who Knows
TTITLE3=Diamond Dust
TTITLE4=Intro
TTITLE5=Madres de Plaza de Mayo
TTITLE6=Another Popsong
TTITLE7=Herrensauna
TTITLE8=Anda Jaleo
TTITLE9=Letzte Runde im Hans Huckebein
EXTD=YEAR: 2006
EXTT0=
EXTT1=
EXTT2=
EXTT3=
EXTT4=
EXTT5=
EXTT6=
EXTT7=
EXTT8=
EXTT9=
PLAYORDER=
